<svg width="456" height="456" viewBox="0 0 456 456" fill="none" xmlns="http://www.w3.org/2000/svg">
<rect width="456" height="456" fill="#222831"/>
<path d="M139.432 255V209.4H148.072V255H139.432ZM143.752 200.28C142.152 200.28 140.84 199.768 139.816 198.744C138.792 197.656 138.28 196.312 138.28 194.712C138.28 193.176 138.792 191.896 139.816 190.872C140.84 189.784 142.152 189.24 143.752 189.24C145.352 189.24 146.664 189.784 147.688 190.872C148.712 191.896 149.224 193.176 149.224 194.712C149.224 196.312 148.712 197.656 147.688 198.744C146.664 199.768 145.352 200.28 143.752 200.28ZM175.301 255.96C172.741 255.96 170.309 255.64 168.005 255C165.765 254.296 163.685 253.336 161.765 252.12C159.845 250.84 158.181 249.336 156.773 247.608L162.341 242.04C164.005 244.088 165.925 245.624 168.101 246.648C170.277 247.608 172.709 248.088 175.397 248.088C178.085 248.088 180.165 247.64 181.637 246.744C183.109 245.784 183.845 244.472 183.845 242.808C183.845 241.144 183.237 239.864 182.021 238.968C180.869 238.008 179.365 237.24 177.509 236.664C175.653 236.024 173.669 235.416 171.557 234.84C169.509 234.2 167.557 233.4 165.701 232.44C163.845 231.48 162.309 230.168 161.093 228.504C159.941 226.84 159.365 224.632 159.365 221.88C159.365 219.128 160.037 216.76 161.381 214.776C162.725 212.728 164.581 211.16 166.949 210.072C169.381 208.984 172.293 208.44 175.685 208.44C179.269 208.44 182.437 209.08 185.189 210.36C188.005 211.576 190.309 213.432 192.101 215.928L186.533 221.496C185.253 219.832 183.653 218.552 181.733 217.656C179.877 216.76 177.765 216.312 175.397 216.312C172.901 216.312 170.981 216.76 169.637 217.656C168.357 218.488 167.717 219.672 167.717 221.208C167.717 222.744 168.293 223.928 169.445 224.76C170.597 225.592 172.101 226.296 173.957 226.872C175.877 227.448 177.861 228.056 179.909 228.696C181.957 229.272 183.909 230.072 185.765 231.096C187.621 232.12 189.125 233.496 190.277 235.224C191.493 236.952 192.101 239.224 192.101 242.04C192.101 246.328 190.565 249.72 187.493 252.216C184.485 254.712 180.421 255.96 175.301 255.96ZM234.03 255V228.408C234.03 224.952 232.942 222.104 230.766 219.864C228.59 217.624 225.774 216.504 222.318 216.504C220.014 216.504 217.966 217.016 216.174 218.04C214.382 219.064 212.974 220.472 211.95 222.264C210.926 224.056 210.414 226.104 210.414 228.408L206.862 226.392C206.862 222.936 207.63 219.864 209.166 217.176C210.702 214.488 212.846 212.376 215.598 210.84C218.35 209.24 221.454 208.44 224.91 208.44C228.366 208.44 231.406 209.208 234.03 210.744C236.718 212.28 238.83 214.424 240.366 217.176C241.902 219.928 242.67 223.096 242.67 226.68V255H234.03ZM201.773 255V186.456H210.414V255H201.773ZM254.463 255V209.4H263.103V255H254.463ZM258.783 200.28C257.183 200.28 255.871 199.768 254.847 198.744C253.823 197.656 253.311 196.312 253.311 194.712C253.311 193.176 253.823 191.896 254.847 190.872C255.871 189.784 257.183 189.24 258.783 189.24C260.383 189.24 261.695 189.784 262.719 190.872C263.743 191.896 264.255 193.176 264.255 194.712C264.255 196.312 263.743 197.656 262.719 198.744C261.695 199.768 260.383 200.28 258.783 200.28ZM308.092 255V228.408C308.092 224.952 307.004 222.104 304.828 219.864C302.652 217.624 299.836 216.504 296.38 216.504C294.076 216.504 292.028 217.016 290.236 218.04C288.444 219.064 287.036 220.472 286.012 222.264C284.988 224.056 284.476 226.104 284.476 228.408L280.924 226.392C280.924 222.936 281.692 219.864 283.228 217.176C284.764 214.488 286.908 212.376 289.66 210.84C292.412 209.24 295.516 208.44 298.972 208.44C302.428 208.44 305.468 209.304 308.092 211.032C310.78 212.76 312.892 215.032 314.428 217.848C315.964 220.6 316.732 223.544 316.732 226.68V255H308.092ZM275.836 255V209.4H284.476V255H275.836Z" fill="#DFD0B8"/>
</svg>
